solid OpenSCAD_Model
  facet normal -1 0 0
    outer loop
      vertex -107.5 -39 1
      vertex -107.5 -38.1 6
      vertex -107.5 -38.1 1
    endloop
  endfacet
  facet normal -1 -0 0
    outer loop
      vertex -107.5 -38.1 6
      vertex -107.5 -39 1
      vertex -107.5 -39 6
    endloop
  endfacet
  facet normal -1 0 0
    outer loop
      vertex -107.5 -36.9 1
      vertex -107.5 -36 6
      vertex -107.5 -36 1
    endloop
  endfacet
  facet normal -1 -0 0
    outer loop
      vertex -107.5 -36 6
      vertex -107.5 -36.9 1
      vertex -107.5 -36.9 6
    endloop
  endfacet
  facet normal -0 0 1
    outer loop
      vertex -107.5 -38.1 6
      vertex 107.5 -39 6
      vertex 107.5 -38.1 6
    endloop
  endfacet
  facet normal 0 0 1
    outer loop
      vertex 107.5 -39 6
      vertex -107.5 -38.1 6
      vertex -107.5 -39 6
    endloop
  endfacet
  facet normal -0 0 1
    outer loop
      vertex -107.5 -36 6
      vertex 107.5 -36.9 6
      vertex 107.5 -36 6
    endloop
  endfacet
  facet normal 0 0 1
    outer loop
      vertex 107.5 -36.9 6
      vertex -107.5 -36 6
      vertex -107.5 -36.9 6
    endloop
  endfacet
  facet normal 1 -0 0
    outer loop
      vertex 107.5 -39 6
      vertex 107.5 -38.1 1
      vertex 107.5 -38.1 6
    endloop
  endfacet
  facet normal 1 0 0
    outer loop
      vertex 107.5 -38.1 1
      vertex 107.5 -39 6
      vertex 107.5 -39 1
    endloop
  endfacet
  facet normal 1 -0 0
    outer loop
      vertex 107.5 -36.9 6
      vertex 107.5 -36 1
      vertex 107.5 -36 6
    endloop
  endfacet
  facet normal 1 0 0
    outer loop
      vertex 107.5 -36 1
      vertex 107.5 -36.9 6
      vertex 107.5 -36.9 1
    endloop
  endfacet
  facet normal 0 1 -0
    outer loop
      vertex 107.5 -36 1
      vertex -107.5 -36 6
      vertex 107.5 -36 6
    endloop
  endfacet
  facet normal 0 1 0
    outer loop
      vertex -107.5 -36 6
      vertex 107.5 -36 1
      vertex -107.5 -36 1
    endloop
  endfacet
  facet normal 0 0 -1
    outer loop
      vertex -117.4 -39 0
      vertex 117.4 39 0
      vertex 117.4 -39 0
    endloop
  endfacet
  facet normal -0 0 -1
    outer loop
      vertex 117.4 39 0
      vertex -117.4 -39 0
      vertex -117.4 39 0
    endloop
  endfacet
  facet normal 0 -1 0
    outer loop
      vertex -117.4 -39 0
      vertex -107.5 -39 1
      vertex -117.4 -39 1
    endloop
  endfacet
  facet normal 0 -1 -0
    outer loop
      vertex -107.5 -39 1
      vertex -117.4 -39 0
      vertex 107.5 -39 1
    endloop
  endfacet
  facet normal 0 -1 0
    outer loop
      vertex 117.4 -39 0
      vertex 107.5 -39 1
      vertex -117.4 -39 0
    endloop
  endfacet
  facet normal 0 -1 0
    outer loop
      vertex 107.5 -39 1
      vertex 117.4 -39 0
      vertex 117.4 -39 1
    endloop
  endfacet
  facet normal 0 -1 0
    outer loop
      vertex -107.5 -39 1
      vertex 107.5 -39 6
      vertex -107.5 -39 6
    endloop
  endfacet
  facet normal 0 -1 -0
    outer loop
      vertex 107.5 -39 6
      vertex -107.5 -39 1
      vertex 107.5 -39 1
    endloop
  endfacet
  facet normal 0 -1 0
    outer loop
      vertex -107.5 -36.9 1
      vertex 107.5 -36.9 6
      vertex -107.5 -36.9 6
    endloop
  endfacet
  facet normal 0 -1 -0
    outer loop
      vertex 107.5 -36.9 6
      vertex -107.5 -36.9 1
      vertex 107.5 -36.9 1
    endloop
  endfacet
  facet normal -0 0 1
    outer loop
      vertex -117.4 39 1
      vertex -107.5 38.1 1
      vertex -107.5 39 1
    endloop
  endfacet
  facet normal 0 0 1
    outer loop
      vertex -107.5 38.1 1
      vertex -117.4 39 1
      vertex -107.5 36.9 1
    endloop
  endfacet
  facet normal 0 0 1
    outer loop
      vertex -107.5 36.9 1
      vertex -117.4 39 1
      vertex -107.5 36 1
    endloop
  endfacet
  facet normal 0 0 1
    outer loop
      vertex -107.5 36 1
      vertex -117.4 39 1
      vertex -107.5 24 1
    endloop
  endfacet
  facet normal 0 0 1
    outer loop
      vertex -107.5 24 1
      vertex -117.4 39 1
      vertex -107.5 23.1 1
    endloop
  endfacet
  facet normal 0 0 1
    outer loop
      vertex -107.5 23.1 1
      vertex -117.4 39 1
      vertex -107.5 21.9 1
    endloop
  endfacet
  facet normal 0 0 1
    outer loop
      vertex -107.5 21.9 1
      vertex -117.4 39 1
      vertex -107.5 21 1
    endloop
  endfacet
  facet normal 0 0 1
    outer loop
      vertex -107.5 21 1
      vertex -117.4 39 1
      vertex -107.5 9 1
    endloop
  endfacet
  facet normal 0 0 1
    outer loop
      vertex -107.5 9 1
      vertex -117.4 39 1
      vertex -107.5 8.1 1
    endloop
  endfacet
  facet normal 0 0 1
    outer loop
      vertex -107.5 8.1 1
      vertex -117.4 39 1
      vertex -107.5 6.9 1
    endloop
  endfacet
  facet normal 0 0 1
    outer loop
      vertex -107.5 6.9 1
      vertex -117.4 39 1
      vertex -107.5 6 1
    endloop
  endfacet
  facet normal 0 0 1
    outer loop
      vertex -107.5 6 1
      vertex -117.4 39 1
      vertex -107.5 -6 1
    endloop
  endfacet
  facet normal 0 0 1
    outer loop
      vertex -117.4 -39 1
      vertex -107.5 -6 1
      vertex -117.4 39 1
    endloop
  endfacet
  facet normal 0 0 1
    outer loop
      vertex -107.5 -6 1
      vertex -117.4 -39 1
      vertex -107.5 -6.9 1
    endloop
  endfacet
  facet normal 0 0 1
    outer loop
      vertex -107.5 -6.9 1
      vertex -117.4 -39 1
      vertex -107.5 -8.1 1
    endloop
  endfacet
  facet normal 0 0 1
    outer loop
      vertex -107.5 -8.1 1
      vertex -117.4 -39 1
      vertex -107.5 -9 1
    endloop
  endfacet
  facet normal 0 0 1
    outer loop
      vertex -107.5 -9 1
      vertex -117.4 -39 1
      vertex -107.5 -21 1
    endloop
  endfacet
  facet normal 0 0 1
    outer loop
      vertex -107.5 -21 1
      vertex -117.4 -39 1
      vertex -107.5 -21.9 1
    endloop
  endfacet
  facet normal 0 0 1
    outer loop
      vertex -107.5 -21.9 1
      vertex -117.4 -39 1
      vertex -107.5 -23.1 1
    endloop
  endfacet
  facet normal 0 0 1
    outer loop
      vertex -107.5 -23.1 1
      vertex -117.4 -39 1
      vertex -107.5 -24 1
    endloop
  endfacet
  facet normal 0 0 1
    outer loop
      vertex -107.5 -24 1
      vertex -117.4 -39 1
      vertex -107.5 -36 1
    endloop
  endfacet
  facet normal 0 0 1
    outer loop
      vertex -107.5 -36 1
      vertex -117.4 -39 1
      vertex -107.5 -36.9 1
    endloop
  endfacet
  facet normal 0 0 1
    outer loop
      vertex -107.5 -36.9 1
      vertex -117.4 -39 1
      vertex -107.5 -38.1 1
    endloop
  endfacet
  facet normal 0 0 1
    outer loop
      vertex -107.5 -38.1 1
      vertex -117.4 -39 1
      vertex -107.5 -39 1
    endloop
  endfacet
  facet normal -0 0 1
    outer loop
      vertex -107.5 -36.9 1
      vertex 107.5 -38.1 1
      vertex 107.5 -36.9 1
    endloop
  endfacet
  facet normal 0 0 1
    outer loop
      vertex 107.5 -38.1 1
      vertex -107.5 -36.9 1
      vertex -107.5 -38.1 1
    endloop
  endfacet
  facet normal -0 0 1
    outer loop
      vertex -107.5 -24 1
      vertex 107.5 -36 1
      vertex 107.5 -24 1
    endloop
  endfacet
  facet normal 0 0 1
    outer loop
      vertex 107.5 -36 1
      vertex -107.5 -24 1
      vertex -107.5 -36 1
    endloop
  endfacet
  facet normal -0 0 1
    outer loop
      vertex -107.5 -21.9 1
      vertex 107.5 -23.1 1
      vertex 107.5 -21.9 1
    endloop
  endfacet
  facet normal 0 0 1
    outer loop
      vertex 107.5 -23.1 1
      vertex -107.5 -21.9 1
      vertex -107.5 -23.1 1
    endloop
  endfacet
  facet normal -0 0 1
    outer loop
      vertex -107.5 -9 1
      vertex 107.5 -21 1
      vertex 107.5 -9 1
    endloop
  endfacet
  facet normal 0 0 1
    outer loop
      vertex 107.5 -21 1
      vertex -107.5 -9 1
      vertex -107.5 -21 1
    endloop
  endfacet
  facet normal -0 0 1
    outer loop
      vertex -107.5 -6.9 1
      vertex 107.5 -8.1 1
      vertex 107.5 -6.9 1
    endloop
  endfacet
  facet normal 0 0 1
    outer loop
      vertex 107.5 -8.1 1
      vertex -107.5 -6.9 1
      vertex -107.5 -8.1 1
    endloop
  endfacet
  facet normal -0 0 1
    outer loop
      vertex -107.5 6 1
      vertex 107.5 -6 1
      vertex 107.5 6 1
    endloop
  endfacet
  facet normal 0 0 1
    outer loop
      vertex 107.5 -6 1
      vertex -107.5 6 1
      vertex -107.5 -6 1
    endloop
  endfacet
  facet normal -0 0 1
    outer loop
      vertex -107.5 8.1 1
      vertex 107.5 6.9 1
      vertex 107.5 8.1 1
    endloop
  endfacet
  facet normal 0 0 1
    outer loop
      vertex 107.5 6.9 1
      vertex -107.5 8.1 1
      vertex -107.5 6.9 1
    endloop
  endfacet
  facet normal -0 0 1
    outer loop
      vertex -107.5 21 1
      vertex 107.5 9 1
      vertex 107.5 21 1
    endloop
  endfacet
  facet normal 0 0 1
    outer loop
      vertex 107.5 9 1
      vertex -107.5 21 1
      vertex -107.5 9 1
    endloop
  endfacet
  facet normal -0 0 1
    outer loop
      vertex -107.5 23.1 1
      vertex 107.5 21.9 1
      vertex 107.5 23.1 1
    endloop
  endfacet
  facet normal 0 0 1
    outer loop
      vertex 107.5 21.9 1
      vertex -107.5 23.1 1
      vertex -107.5 21.9 1
    endloop
  endfacet
  facet normal -0 0 1
    outer loop
      vertex -107.5 36 1
      vertex 107.5 24 1
      vertex 107.5 36 1
    endloop
  endfacet
  facet normal 0 0 1
    outer loop
      vertex 107.5 24 1
      vertex -107.5 36 1
      vertex -107.5 24 1
    endloop
  endfacet
  facet normal -0 0 1
    outer loop
      vertex -107.5 38.1 1
      vertex 107.5 36.9 1
      vertex 107.5 38.1 1
    endloop
  endfacet
  facet normal 0 0 1
    outer loop
      vertex 107.5 36.9 1
      vertex -107.5 38.1 1
      vertex -107.5 36.9 1
    endloop
  endfacet
  facet normal 0 0 1
    outer loop
      vertex 107.5 38.1 1
      vertex 117.4 39 1
      vertex 107.5 39 1
    endloop
  endfacet
  facet normal 0 0 1
    outer loop
      vertex 107.5 36.9 1
      vertex 117.4 39 1
      vertex 107.5 38.1 1
    endloop
  endfacet
  facet normal 0 0 1
    outer loop
      vertex 107.5 36 1
      vertex 117.4 39 1
      vertex 107.5 36.9 1
    endloop
  endfacet
  facet normal 0 0 1
    outer loop
      vertex 107.5 24 1
      vertex 117.4 39 1
      vertex 107.5 36 1
    endloop
  endfacet
  facet normal 0 0 1
    outer loop
      vertex 107.5 23.1 1
      vertex 117.4 39 1
      vertex 107.5 24 1
    endloop
  endfacet
  facet normal 0 0 1
    outer loop
      vertex 107.5 21.9 1
      vertex 117.4 39 1
      vertex 107.5 23.1 1
    endloop
  endfacet
  facet normal 0 0 1
    outer loop
      vertex 107.5 21 1
      vertex 117.4 39 1
      vertex 107.5 21.9 1
    endloop
  endfacet
  facet normal 0 0 1
    outer loop
      vertex 107.5 9 1
      vertex 117.4 39 1
      vertex 107.5 21 1
    endloop
  endfacet
  facet normal 0 0 1
    outer loop
      vertex 107.5 8.1 1
      vertex 117.4 39 1
      vertex 107.5 9 1
    endloop
  endfacet
  facet normal 0 0 1
    outer loop
      vertex 107.5 6.9 1
      vertex 117.4 39 1
      vertex 107.5 8.1 1
    endloop
  endfacet
  facet normal 0 0 1
    outer loop
      vertex 107.5 6 1
      vertex 117.4 39 1
      vertex 107.5 6.9 1
    endloop
  endfacet
  facet normal 0 0 1
    outer loop
      vertex 117.4 39 1
      vertex 107.5 6 1
      vertex 117.4 -39 1
    endloop
  endfacet
  facet normal -0 0 1
    outer loop
      vertex 107.5 -6 1
      vertex 117.4 -39 1
      vertex 107.5 6 1
    endloop
  endfacet
  facet normal -0 0 1
    outer loop
      vertex 107.5 -6.9 1
      vertex 117.4 -39 1
      vertex 107.5 -6 1
    endloop
  endfacet
  facet normal -0 0 1
    outer loop
      vertex 107.5 -8.1 1
      vertex 117.4 -39 1
      vertex 107.5 -6.9 1
    endloop
  endfacet
  facet normal -0 0 1
    outer loop
      vertex 107.5 -9 1
      vertex 117.4 -39 1
      vertex 107.5 -8.1 1
    endloop
  endfacet
  facet normal -0 0 1
    outer loop
      vertex 107.5 -21 1
      vertex 117.4 -39 1
      vertex 107.5 -9 1
    endloop
  endfacet
  facet normal -0 0 1
    outer loop
      vertex 107.5 -21.9 1
      vertex 117.4 -39 1
      vertex 107.5 -21 1
    endloop
  endfacet
  facet normal -0 0 1
    outer loop
      vertex 107.5 -23.1 1
      vertex 117.4 -39 1
      vertex 107.5 -21.9 1
    endloop
  endfacet
  facet normal -0 0 1
    outer loop
      vertex 107.5 -24 1
      vertex 117.4 -39 1
      vertex 107.5 -23.1 1
    endloop
  endfacet
  facet normal -0 0 1
    outer loop
      vertex 107.5 -36 1
      vertex 117.4 -39 1
      vertex 107.5 -24 1
    endloop
  endfacet
  facet normal -0 0 1
    outer loop
      vertex 107.5 -36.9 1
      vertex 117.4 -39 1
      vertex 107.5 -36 1
    endloop
  endfacet
  facet normal -0 0 1
    outer loop
      vertex 107.5 -38.1 1
      vertex 117.4 -39 1
      vertex 107.5 -36.9 1
    endloop
  endfacet
  facet normal 0 0 1
    outer loop
      vertex 117.4 -39 1
      vertex 107.5 -38.1 1
      vertex 107.5 -39 1
    endloop
  endfacet
  facet normal 0 1 -0
    outer loop
      vertex 107.5 -38.1 1
      vertex -107.5 -38.1 6
      vertex 107.5 -38.1 6
    endloop
  endfacet
  facet normal 0 1 0
    outer loop
      vertex -107.5 -38.1 6
      vertex 107.5 -38.1 1
      vertex -107.5 -38.1 1
    endloop
  endfacet
  facet normal -1 0 0
    outer loop
      vertex -107.5 -24 1
      vertex -107.5 -23.1 6
      vertex -107.5 -23.1 1
    endloop
  endfacet
  facet normal -1 -0 0
    outer loop
      vertex -107.5 -23.1 6
      vertex -107.5 -24 1
      vertex -107.5 -24 6
    endloop
  endfacet
  facet normal -1 0 0
    outer loop
      vertex -107.5 -21.9 1
      vertex -107.5 -21 6
      vertex -107.5 -21 1
    endloop
  endfacet
  facet normal -1 -0 0
    outer loop
      vertex -107.5 -21 6
      vertex -107.5 -21.9 1
      vertex -107.5 -21.9 6
    endloop
  endfacet
  facet normal -0 0 1
    outer loop
      vertex -107.5 -23.1 6
      vertex 107.5 -24 6
      vertex 107.5 -23.1 6
    endloop
  endfacet
  facet normal 0 0 1
    outer loop
      vertex 107.5 -24 6
      vertex -107.5 -23.1 6
      vertex -107.5 -24 6
    endloop
  endfacet
  facet normal -0 0 1
    outer loop
      vertex -107.5 -21 6
      vertex 107.5 -21.9 6
      vertex 107.5 -21 6
    endloop
  endfacet
  facet normal 0 0 1
    outer loop
      vertex 107.5 -21.9 6
      vertex -107.5 -21 6
      vertex -107.5 -21.9 6
    endloop
  endfacet
  facet normal 1 -0 0
    outer loop
      vertex 107.5 -24 6
      vertex 107.5 -23.1 1
      vertex 107.5 -23.1 6
    endloop
  endfacet
  facet normal 1 0 0
    outer loop
      vertex 107.5 -23.1 1
      vertex 107.5 -24 6
      vertex 107.5 -24 1
    endloop
  endfacet
  facet normal 1 -0 0
    outer loop
      vertex 107.5 -21.9 6
      vertex 107.5 -21 1
      vertex 107.5 -21 6
    endloop
  endfacet
  facet normal 1 0 0
    outer loop
      vertex 107.5 -21 1
      vertex 107.5 -21.9 6
      vertex 107.5 -21.9 1
    endloop
  endfacet
  facet normal 0 1 -0
    outer loop
      vertex 107.5 -21 1
      vertex -107.5 -21 6
      vertex 107.5 -21 6
    endloop
  endfacet
  facet normal 0 1 0
    outer loop
      vertex -107.5 -21 6
      vertex 107.5 -21 1
      vertex -107.5 -21 1
    endloop
  endfacet
  facet normal 0 -1 0
    outer loop
      vertex -107.5 -24 1
      vertex 107.5 -24 6
      vertex -107.5 -24 6
    endloop
  endfacet
  facet normal 0 -1 -0
    outer loop
      vertex 107.5 -24 6
      vertex -107.5 -24 1
      vertex 107.5 -24 1
    endloop
  endfacet
  facet normal 0 -1 0
    outer loop
      vertex -107.5 -21.9 1
      vertex 107.5 -21.9 6
      vertex -107.5 -21.9 6
    endloop
  endfacet
  facet normal 0 -1 -0
    outer loop
      vertex 107.5 -21.9 6
      vertex -107.5 -21.9 1
      vertex 107.5 -21.9 1
    endloop
  endfacet
  facet normal 0 1 -0
    outer loop
      vertex 107.5 -23.1 1
      vertex -107.5 -23.1 6
      vertex 107.5 -23.1 6
    endloop
  endfacet
  facet normal 0 1 0
    outer loop
      vertex -107.5 -23.1 6
      vertex 107.5 -23.1 1
      vertex -107.5 -23.1 1
    endloop
  endfacet
  facet normal -1 0 0
    outer loop
      vertex -107.5 -9 1
      vertex -107.5 -8.1 6
      vertex -107.5 -8.1 1
    endloop
  endfacet
  facet normal -1 -0 0
    outer loop
      vertex -107.5 -8.1 6
      vertex -107.5 -9 1
      vertex -107.5 -9 6
    endloop
  endfacet
  facet normal -1 0 0
    outer loop
      vertex -107.5 -6.9 1
      vertex -107.5 -6 6
      vertex -107.5 -6 1
    endloop
  endfacet
  facet normal -1 -0 0
    outer loop
      vertex -107.5 -6 6
      vertex -107.5 -6.9 1
      vertex -107.5 -6.9 6
    endloop
  endfacet
  facet normal -0 0 1
    outer loop
      vertex -107.5 -8.1 6
      vertex 107.5 -9 6
      vertex 107.5 -8.1 6
    endloop
  endfacet
  facet normal 0 0 1
    outer loop
      vertex 107.5 -9 6
      vertex -107.5 -8.1 6
      vertex -107.5 -9 6
    endloop
  endfacet
  facet normal -0 0 1
    outer loop
      vertex -107.5 -6 6
      vertex 107.5 -6.9 6
      vertex 107.5 -6 6
    endloop
  endfacet
  facet normal 0 0 1
    outer loop
      vertex 107.5 -6.9 6
      vertex -107.5 -6 6
      vertex -107.5 -6.9 6
    endloop
  endfacet
  facet normal 1 -0 0
    outer loop
      vertex 107.5 -9 6
      vertex 107.5 -8.1 1
      vertex 107.5 -8.1 6
    endloop
  endfacet
  facet normal 1 0 0
    outer loop
      vertex 107.5 -8.1 1
      vertex 107.5 -9 6
      vertex 107.5 -9 1
    endloop
  endfacet
  facet normal 1 -0 0
    outer loop
      vertex 107.5 -6.9 6
      vertex 107.5 -6 1
      vertex 107.5 -6 6
    endloop
  endfacet
  facet normal 1 0 0
    outer loop
      vertex 107.5 -6 1
      vertex 107.5 -6.9 6
      vertex 107.5 -6.9 1
    endloop
  endfacet
  facet normal 0 1 -0
    outer loop
      vertex 107.5 -6 1
      vertex -107.5 -6 6
      vertex 107.5 -6 6
    endloop
  endfacet
  facet normal 0 1 0
    outer loop
      vertex -107.5 -6 6
      vertex 107.5 -6 1
      vertex -107.5 -6 1
    endloop
  endfacet
  facet normal 0 -1 0
    outer loop
      vertex -107.5 -9 1
      vertex 107.5 -9 6
      vertex -107.5 -9 6
    endloop
  endfacet
  facet normal 0 -1 -0
    outer loop
      vertex 107.5 -9 6
      vertex -107.5 -9 1
      vertex 107.5 -9 1
    endloop
  endfacet
  facet normal 0 -1 0
    outer loop
      vertex -107.5 -6.9 1
      vertex 107.5 -6.9 6
      vertex -107.5 -6.9 6
    endloop
  endfacet
  facet normal 0 -1 -0
    outer loop
      vertex 107.5 -6.9 6
      vertex -107.5 -6.9 1
      vertex 107.5 -6.9 1
    endloop
  endfacet
  facet normal 0 1 -0
    outer loop
      vertex 107.5 -8.1 1
      vertex -107.5 -8.1 6
      vertex 107.5 -8.1 6
    endloop
  endfacet
  facet normal 0 1 0
    outer loop
      vertex -107.5 -8.1 6
      vertex 107.5 -8.1 1
      vertex -107.5 -8.1 1
    endloop
  endfacet
  facet normal -1 0 0
    outer loop
      vertex -107.5 6 1
      vertex -107.5 6.9 6
      vertex -107.5 6.9 1
    endloop
  endfacet
  facet normal -1 -0 0
    outer loop
      vertex -107.5 6.9 6
      vertex -107.5 6 1
      vertex -107.5 6 6
    endloop
  endfacet
  facet normal -1 0 0
    outer loop
      vertex -107.5 8.1 1
      vertex -107.5 9 6
      vertex -107.5 9 1
    endloop
  endfacet
  facet normal -1 -0 0
    outer loop
      vertex -107.5 9 6
      vertex -107.5 8.1 1
      vertex -107.5 8.1 6
    endloop
  endfacet
  facet normal -0 0 1
    outer loop
      vertex -107.5 6.9 6
      vertex 107.5 6 6
      vertex 107.5 6.9 6
    endloop
  endfacet
  facet normal 0 0 1
    outer loop
      vertex 107.5 6 6
      vertex -107.5 6.9 6
      vertex -107.5 6 6
    endloop
  endfacet
  facet normal -0 0 1
    outer loop
      vertex -107.5 9 6
      vertex 107.5 8.1 6
      vertex 107.5 9 6
    endloop
  endfacet
  facet normal 0 0 1
    outer loop
      vertex 107.5 8.1 6
      vertex -107.5 9 6
      vertex -107.5 8.1 6
    endloop
  endfacet
  facet normal 1 -0 0
    outer loop
      vertex 107.5 6 6
      vertex 107.5 6.9 1
      vertex 107.5 6.9 6
    endloop
  endfacet
  facet normal 1 0 0
    outer loop
      vertex 107.5 6.9 1
      vertex 107.5 6 6
      vertex 107.5 6 1
    endloop
  endfacet
  facet normal 1 -0 0
    outer loop
      vertex 107.5 8.1 6
      vertex 107.5 9 1
      vertex 107.5 9 6
    endloop
  endfacet
  facet normal 1 0 0
    outer loop
      vertex 107.5 9 1
      vertex 107.5 8.1 6
      vertex 107.5 8.1 1
    endloop
  endfacet
  facet normal 0 1 -0
    outer loop
      vertex 107.5 9 1
      vertex -107.5 9 6
      vertex 107.5 9 6
    endloop
  endfacet
  facet normal 0 1 0
    outer loop
      vertex -107.5 9 6
      vertex 107.5 9 1
      vertex -107.5 9 1
    endloop
  endfacet
  facet normal 0 -1 0
    outer loop
      vertex -107.5 6 1
      vertex 107.5 6 6
      vertex -107.5 6 6
    endloop
  endfacet
  facet normal 0 -1 -0
    outer loop
      vertex 107.5 6 6
      vertex -107.5 6 1
      vertex 107.5 6 1
    endloop
  endfacet
  facet normal 0 -1 0
    outer loop
      vertex -107.5 8.1 1
      vertex 107.5 8.1 6
      vertex -107.5 8.1 6
    endloop
  endfacet
  facet normal 0 -1 -0
    outer loop
      vertex 107.5 8.1 6
      vertex -107.5 8.1 1
      vertex 107.5 8.1 1
    endloop
  endfacet
  facet normal 0 1 -0
    outer loop
      vertex 107.5 6.9 1
      vertex -107.5 6.9 6
      vertex 107.5 6.9 6
    endloop
  endfacet
  facet normal 0 1 0
    outer loop
      vertex -107.5 6.9 6
      vertex 107.5 6.9 1
      vertex -107.5 6.9 1
    endloop
  endfacet
  facet normal -1 0 0
    outer loop
      vertex -107.5 21 1
      vertex -107.5 21.9 6
      vertex -107.5 21.9 1
    endloop
  endfacet
  facet normal -1 -0 0
    outer loop
      vertex -107.5 21.9 6
      vertex -107.5 21 1
      vertex -107.5 21 6
    endloop
  endfacet
  facet normal -1 0 0
    outer loop
      vertex -107.5 23.1 1
      vertex -107.5 24 6
      vertex -107.5 24 1
    endloop
  endfacet
  facet normal -1 -0 0
    outer loop
      vertex -107.5 24 6
      vertex -107.5 23.1 1
      vertex -107.5 23.1 6
    endloop
  endfacet
  facet normal -0 0 1
    outer loop
      vertex -107.5 21.9 6
      vertex 107.5 21 6
      vertex 107.5 21.9 6
    endloop
  endfacet
  facet normal 0 0 1
    outer loop
      vertex 107.5 21 6
      vertex -107.5 21.9 6
      vertex -107.5 21 6
    endloop
  endfacet
  facet normal -0 0 1
    outer loop
      vertex -107.5 24 6
      vertex 107.5 23.1 6
      vertex 107.5 24 6
    endloop
  endfacet
  facet normal 0 0 1
    outer loop
      vertex 107.5 23.1 6
      vertex -107.5 24 6
      vertex -107.5 23.1 6
    endloop
  endfacet
  facet normal 1 -0 0
    outer loop
      vertex 107.5 21 6
      vertex 107.5 21.9 1
      vertex 107.5 21.9 6
    endloop
  endfacet
  facet normal 1 0 0
    outer loop
      vertex 107.5 21.9 1
      vertex 107.5 21 6
      vertex 107.5 21 1
    endloop
  endfacet
  facet normal 1 -0 0
    outer loop
      vertex 107.5 23.1 6
      vertex 107.5 24 1
      vertex 107.5 24 6
    endloop
  endfacet
  facet normal 1 0 0
    outer loop
      vertex 107.5 24 1
      vertex 107.5 23.1 6
      vertex 107.5 23.1 1
    endloop
  endfacet
  facet normal 0 1 -0
    outer loop
      vertex 107.5 24 1
      vertex -107.5 24 6
      vertex 107.5 24 6
    endloop
  endfacet
  facet normal 0 1 0
    outer loop
      vertex -107.5 24 6
      vertex 107.5 24 1
      vertex -107.5 24 1
    endloop
  endfacet
  facet normal 0 -1 0
    outer loop
      vertex -107.5 21 1
      vertex 107.5 21 6
      vertex -107.5 21 6
    endloop
  endfacet
  facet normal 0 -1 -0
    outer loop
      vertex 107.5 21 6
      vertex -107.5 21 1
      vertex 107.5 21 1
    endloop
  endfacet
  facet normal 0 -1 0
    outer loop
      vertex -107.5 23.1 1
      vertex 107.5 23.1 6
      vertex -107.5 23.1 6
    endloop
  endfacet
  facet normal 0 -1 -0
    outer loop
      vertex 107.5 23.1 6
      vertex -107.5 23.1 1
      vertex 107.5 23.1 1
    endloop
  endfacet
  facet normal 0 1 -0
    outer loop
      vertex 107.5 21.9 1
      vertex -107.5 21.9 6
      vertex 107.5 21.9 6
    endloop
  endfacet
  facet normal 0 1 0
    outer loop
      vertex -107.5 21.9 6
      vertex 107.5 21.9 1
      vertex -107.5 21.9 1
    endloop
  endfacet
  facet normal -1 0 0
    outer loop
      vertex -107.5 36 1
      vertex -107.5 36.9 6
      vertex -107.5 36.9 1
    endloop
  endfacet
  facet normal -1 -0 0
    outer loop
      vertex -107.5 36.9 6
      vertex -107.5 36 1
      vertex -107.5 36 6
    endloop
  endfacet
  facet normal -1 0 0
    outer loop
      vertex -107.5 38.1 1
      vertex -107.5 39 6
      vertex -107.5 39 1
    endloop
  endfacet
  facet normal -1 -0 0
    outer loop
      vertex -107.5 39 6
      vertex -107.5 38.1 1
      vertex -107.5 38.1 6
    endloop
  endfacet
  facet normal -0 0 1
    outer loop
      vertex -107.5 36.9 6
      vertex 107.5 36 6
      vertex 107.5 36.9 6
    endloop
  endfacet
  facet normal 0 0 1
    outer loop
      vertex 107.5 36 6
      vertex -107.5 36.9 6
      vertex -107.5 36 6
    endloop
  endfacet
  facet normal -0 0 1
    outer loop
      vertex -107.5 39 6
      vertex 107.5 38.1 6
      vertex 107.5 39 6
    endloop
  endfacet
  facet normal 0 0 1
    outer loop
      vertex 107.5 38.1 6
      vertex -107.5 39 6
      vertex -107.5 38.1 6
    endloop
  endfacet
  facet normal 1 -0 0
    outer loop
      vertex 107.5 36 6
      vertex 107.5 36.9 1
      vertex 107.5 36.9 6
    endloop
  endfacet
  facet normal 1 0 0
    outer loop
      vertex 107.5 36.9 1
      vertex 107.5 36 6
      vertex 107.5 36 1
    endloop
  endfacet
  facet normal 1 -0 0
    outer loop
      vertex 107.5 38.1 6
      vertex 107.5 39 1
      vertex 107.5 39 6
    endloop
  endfacet
  facet normal 1 0 0
    outer loop
      vertex 107.5 39 1
      vertex 107.5 38.1 6
      vertex 107.5 38.1 1
    endloop
  endfacet
  facet normal 0 1 -0
    outer loop
      vertex 117.4 39 0
      vertex 107.5 39 1
      vertex 117.4 39 1
    endloop
  endfacet
  facet normal 0 1 0
    outer loop
      vertex 107.5 39 1
      vertex 117.4 39 0
      vertex -107.5 39 1
    endloop
  endfacet
  facet normal 0 1 0
    outer loop
      vertex -117.4 39 0
      vertex -107.5 39 1
      vertex 117.4 39 0
    endloop
  endfacet
  facet normal 0 1 0
    outer loop
      vertex -107.5 39 1
      vertex -117.4 39 0
      vertex -117.4 39 1
    endloop
  endfacet
  facet normal 0 1 -0
    outer loop
      vertex 107.5 39 1
      vertex -107.5 39 6
      vertex 107.5 39 6
    endloop
  endfacet
  facet normal 0 1 0
    outer loop
      vertex -107.5 39 6
      vertex 107.5 39 1
      vertex -107.5 39 1
    endloop
  endfacet
  facet normal 0 -1 0
    outer loop
      vertex -107.5 36 1
      vertex 107.5 36 6
      vertex -107.5 36 6
    endloop
  endfacet
  facet normal 0 -1 -0
    outer loop
      vertex 107.5 36 6
      vertex -107.5 36 1
      vertex 107.5 36 1
    endloop
  endfacet
  facet normal 0 -1 0
    outer loop
      vertex -107.5 38.1 1
      vertex 107.5 38.1 6
      vertex -107.5 38.1 6
    endloop
  endfacet
  facet normal 0 -1 -0
    outer loop
      vertex 107.5 38.1 6
      vertex -107.5 38.1 1
      vertex 107.5 38.1 1
    endloop
  endfacet
  facet normal 0 1 -0
    outer loop
      vertex 107.5 36.9 1
      vertex -107.5 36.9 6
      vertex 107.5 36.9 6
    endloop
  endfacet
  facet normal 0 1 0
    outer loop
      vertex -107.5 36.9 6
      vertex 107.5 36.9 1
      vertex -107.5 36.9 1
    endloop
  endfacet
  facet normal -1 0 0
    outer loop
      vertex -117.4 -39 0
      vertex -117.4 39 1
      vertex -117.4 39 0
    endloop
  endfacet
  facet normal -1 -0 0
    outer loop
      vertex -117.4 39 1
      vertex -117.4 -39 0
      vertex -117.4 -39 1
    endloop
  endfacet
  facet normal 1 -0 0
    outer loop
      vertex 117.4 -39 1
      vertex 117.4 39 0
      vertex 117.4 39 1
    endloop
  endfacet
  facet normal 1 0 0
    outer loop
      vertex 117.4 39 0
      vertex 117.4 -39 1
      vertex 117.4 -39 0
    endloop
  endfacet
endsolid OpenSCAD_Model
